<svg width="59" height="59" viewBox="0 0 59 59" fill="none" xmlns="http://www.w3.org/2000/svg">
<mask id="mask0_108_12" style="mask-type:alpha" maskUnits="userSpaceOnUse" x="0" y="0" width="59" height="59">
<circle cx="29.7804" cy="29.285" r="29.015" fill="#D9D9D9"/>
</mask>
<g mask="url(#mask0_108_12)">
<path d="M29.5878 28.7604C29.5878 29.2276 29.2091 29.6064 28.7418 29.6064L-3.82502 29.6064C-4.29227 29.6064 -4.67105 29.2276 -4.67105 28.7604V-3.80645C-4.67104 -4.2737 -4.29226 -4.65249 -3.82502 -4.65249L28.7418 -4.65248C29.2091 -4.65248 29.5878 -4.2737 29.5878 -3.80645L29.5878 28.7604Z" fill="url(#paint0_linear_108_12)"/>
<path d="M29.594 30.3116C29.594 29.8443 29.9728 29.4655 30.4401 29.4655L63.0069 29.4655C63.4741 29.4655 63.8529 29.8443 63.8529 30.3116V62.8784C63.8529 63.3456 63.4741 63.7244 63.0069 63.7244L30.4401 63.7244C29.9728 63.7244 29.594 63.3456 29.594 62.8784L29.594 30.3116Z" fill="url(#paint1_linear_108_12)"/>
</g>
<ellipse cx="14.6483" cy="44.1482" rx="10.4991" ry="10.3831" fill="#3453E9"/>
<path d="M54.0655 15.4601C54.0655 21.1945 49.4169 25.8432 43.6824 25.8432C37.948 25.8432 33.2993 21.1945 33.2993 15.4601C33.2993 9.72567 37.948 5.077 43.6824 5.077C49.4169 5.077 54.0655 9.72567 54.0655 15.4601Z" fill="#3453E9"/>
<defs>
<linearGradient id="paint0_linear_108_12" x1="47.8921" y1="46.7358" x2="-4.67104" y2="-4.65248" gradientUnits="userSpaceOnUse">
<stop offset="0.440551" stop-color="#3453E9"/>
<stop offset="0.481395" stop-color="#314FDF"/>
<stop offset="1" stop-color="#101F64"/>
</linearGradient>
<linearGradient id="paint1_linear_108_12" x1="11.2898" y1="12.3361" x2="63.8529" y2="63.7244" gradientUnits="userSpaceOnUse">
<stop offset="0.440551" stop-color="#3453E9"/>
<stop offset="0.481395" stop-color="#314FDF"/>
<stop offset="1" stop-color="#101F64"/>
</linearGradient>
</defs>
</svg>
