<svg xmlns="http://www.w3.org/2000/svg" width="59" height="59" fill="none" viewBox="0 0 59 59"><mask id="mask0_108_12" style="mask-type:alpha" width="59" height="59" x="0" y="0" maskUnits="userSpaceOnUse"><circle cx="29.78" cy="29.285" r="29.015" fill="#D9D9D9"/></mask><g mask="url(#mask0_108_12)"><path fill="url(#paint0_linear_108_12)" d="M29.5878 28.7604C29.5878 29.2276 29.2091 29.6064 28.7418 29.6064L-3.82502 29.6064C-4.29227 29.6064 -4.67105 29.2276 -4.67105 28.7604V-3.80645C-4.67104 -4.2737 -4.29226 -4.65249 -3.82502 -4.65249L28.7418 -4.65248C29.2091 -4.65248 29.5878 -4.2737 29.5878 -3.80645L29.5878 28.7604Z"/><path fill="url(#paint1_linear_108_12)" d="M29.594 30.3116C29.594 29.8443 29.9728 29.4655 30.4401 29.4655L63.0069 29.4655C63.4741 29.4655 63.8529 29.8443 63.8529 30.3116V62.8784C63.8529 63.3456 63.4741 63.7244 63.0069 63.7244L30.4401 63.7244C29.9728 63.7244 29.594 63.3456 29.594 62.8784L29.594 30.3116Z"/></g><ellipse cx="14.648" cy="44.148" fill="#3453E9" rx="10.499" ry="10.383"/><path fill="#3453E9" d="M54.0655 15.4601C54.0655 21.1945 49.4169 25.8432 43.6824 25.8432C37.948 25.8432 33.2993 21.1945 33.2993 15.4601C33.2993 9.72567 37.948 5.077 43.6824 5.077C49.4169 5.077 54.0655 9.72567 54.0655 15.4601Z"/><defs><linearGradient id="paint0_linear_108_12" x1="47.892" x2="-4.671" y1="46.736" y2="-4.652" gradientUnits="userSpaceOnUse"><stop offset=".441" stop-color="#3453E9"/><stop offset=".481" stop-color="#314FDF"/><stop offset="1" stop-color="#101F64"/></linearGradient><linearGradient id="paint1_linear_108_12" x1="11.29" x2="63.853" y1="12.336" y2="63.724" gradientUnits="userSpaceOnUse"><stop offset=".441" stop-color="#3453E9"/><stop offset=".481" stop-color="#314FDF"/><stop offset="1" stop-color="#101F64"/></linearGradient></defs></svg>